<mxfile host="app.diagrams.net" modified="2023-10-30T04:14:30.989Z" agent="Mozilla/5.0 (Macintosh; Intel Mac OS X 10_15_7) AppleWebKit/537.36 (KHTML, like Gecko) Chrome/118.0.0.0 Safari/537.36" etag="P1MXJBiJ9QvhYwoeWj9F" version="22.0.8" type="onedrive">
  <diagram name="Page-1" id="EEvO7uvrVdAiT8LtyzZo">
    <mxGraphModel dx="779" dy="830" grid="0" gridSize="10" guides="1" tooltips="1" connect="1" arrows="1" fold="1" page="1" pageScale="1" pageWidth="850" pageHeight="1100" math="0" shadow="0">
      <root>
        <mxCell id="0" />
        <mxCell id="1" parent="0" />
        <mxCell id="HkL5jem2buBL4XpJYNCQ-1" value="User" style="rounded=0;whiteSpace=wrap;html=1;" vertex="1" parent="1">
          <mxGeometry x="108" y="99" width="120" height="60" as="geometry" />
        </mxCell>
        <mxCell id="HkL5jem2buBL4XpJYNCQ-2" value="API" style="rounded=0;whiteSpace=wrap;html=1;" vertex="1" parent="1">
          <mxGeometry x="365" y="99" width="120" height="60" as="geometry" />
        </mxCell>
        <mxCell id="HkL5jem2buBL4XpJYNCQ-3" value="Dataset" style="rounded=0;whiteSpace=wrap;html=1;" vertex="1" parent="1">
          <mxGeometry x="622" y="99" width="120" height="60" as="geometry" />
        </mxCell>
        <mxCell id="HkL5jem2buBL4XpJYNCQ-6" value="" style="endArrow=none;html=1;rounded=0;entryX=0.5;entryY=1;entryDx=0;entryDy=0;" edge="1" parent="1" target="HkL5jem2buBL4XpJYNCQ-1">
          <mxGeometry width="50" height="50" relative="1" as="geometry">
            <mxPoint x="168" y="775" as="sourcePoint" />
            <mxPoint x="397" y="453" as="targetPoint" />
          </mxGeometry>
        </mxCell>
        <mxCell id="HkL5jem2buBL4XpJYNCQ-8" value="" style="endArrow=none;html=1;rounded=0;" edge="1" parent="1" target="HkL5jem2buBL4XpJYNCQ-2">
          <mxGeometry width="50" height="50" relative="1" as="geometry">
            <mxPoint x="425" y="775" as="sourcePoint" />
            <mxPoint x="425" y="159" as="targetPoint" />
          </mxGeometry>
        </mxCell>
        <mxCell id="HkL5jem2buBL4XpJYNCQ-9" value="" style="endArrow=none;html=1;rounded=0;" edge="1" parent="1" target="HkL5jem2buBL4XpJYNCQ-3">
          <mxGeometry width="50" height="50" relative="1" as="geometry">
            <mxPoint x="681.38" y="775" as="sourcePoint" />
            <mxPoint x="681.38" y="159" as="targetPoint" />
          </mxGeometry>
        </mxCell>
        <mxCell id="HkL5jem2buBL4XpJYNCQ-10" value="" style="endArrow=classic;html=1;rounded=0;" edge="1" parent="1">
          <mxGeometry width="50" height="50" relative="1" as="geometry">
            <mxPoint x="168" y="252" as="sourcePoint" />
            <mxPoint x="425" y="252" as="targetPoint" />
          </mxGeometry>
        </mxCell>
        <mxCell id="HkL5jem2buBL4XpJYNCQ-11" value="Enter ingredients" style="text;html=1;align=center;verticalAlign=middle;resizable=0;points=[];autosize=1;strokeColor=none;fillColor=none;" vertex="1" parent="1">
          <mxGeometry x="241" y="222" width="109" height="26" as="geometry" />
        </mxCell>
        <mxCell id="HkL5jem2buBL4XpJYNCQ-13" value="" style="endArrow=classic;html=1;rounded=0;" edge="1" parent="1">
          <mxGeometry width="50" height="50" relative="1" as="geometry">
            <mxPoint x="426" y="301" as="sourcePoint" />
            <mxPoint x="683" y="301" as="targetPoint" />
          </mxGeometry>
        </mxCell>
        <mxCell id="HkL5jem2buBL4XpJYNCQ-14" value="Compare the ingredients in recipes" style="text;html=1;align=center;verticalAlign=middle;resizable=0;points=[];autosize=1;strokeColor=none;fillColor=none;" vertex="1" parent="1">
          <mxGeometry x="452" y="271" width="204" height="26" as="geometry" />
        </mxCell>
        <mxCell id="HkL5jem2buBL4XpJYNCQ-15" value="" style="endArrow=none;html=1;rounded=0;startArrow=classic;startFill=1;endFill=0;" edge="1" parent="1">
          <mxGeometry width="50" height="50" relative="1" as="geometry">
            <mxPoint x="425" y="378" as="sourcePoint" />
            <mxPoint x="682" y="378" as="targetPoint" />
          </mxGeometry>
        </mxCell>
        <mxCell id="HkL5jem2buBL4XpJYNCQ-16" value="Provide recipes which have &lt;br&gt;common ingredients the most" style="text;html=1;align=center;verticalAlign=middle;resizable=0;points=[];autosize=1;strokeColor=none;fillColor=none;" vertex="1" parent="1">
          <mxGeometry x="466.5" y="332" width="175" height="41" as="geometry" />
        </mxCell>
        <mxCell id="HkL5jem2buBL4XpJYNCQ-17" value="" style="endArrow=none;html=1;rounded=0;startArrow=classic;startFill=1;endFill=0;" edge="1" parent="1">
          <mxGeometry width="50" height="50" relative="1" as="geometry">
            <mxPoint x="168" y="447" as="sourcePoint" />
            <mxPoint x="425" y="447" as="targetPoint" />
          </mxGeometry>
        </mxCell>
        <mxCell id="HkL5jem2buBL4XpJYNCQ-18" value="Display recipes" style="text;html=1;align=center;verticalAlign=middle;resizable=0;points=[];autosize=1;strokeColor=none;fillColor=none;" vertex="1" parent="1">
          <mxGeometry x="251" y="417" width="99" height="26" as="geometry" />
        </mxCell>
        <mxCell id="HkL5jem2buBL4XpJYNCQ-20" value="Select a recipe" style="text;html=1;align=center;verticalAlign=middle;resizable=0;points=[];autosize=1;strokeColor=none;fillColor=none;" vertex="1" parent="1">
          <mxGeometry x="252" y="497" width="97" height="26" as="geometry" />
        </mxCell>
        <mxCell id="HkL5jem2buBL4XpJYNCQ-21" value="" style="endArrow=classic;html=1;rounded=0;" edge="1" parent="1">
          <mxGeometry width="50" height="50" relative="1" as="geometry">
            <mxPoint x="168" y="528" as="sourcePoint" />
            <mxPoint x="425" y="528" as="targetPoint" />
          </mxGeometry>
        </mxCell>
        <mxCell id="HkL5jem2buBL4XpJYNCQ-22" value="Request for recipe link" style="text;html=1;align=center;verticalAlign=middle;resizable=0;points=[];autosize=1;strokeColor=none;fillColor=none;" vertex="1" parent="1">
          <mxGeometry x="489" y="565" width="137" height="26" as="geometry" />
        </mxCell>
        <mxCell id="HkL5jem2buBL4XpJYNCQ-23" value="" style="endArrow=classic;html=1;rounded=0;" edge="1" parent="1">
          <mxGeometry width="50" height="50" relative="1" as="geometry">
            <mxPoint x="425" y="596" as="sourcePoint" />
            <mxPoint x="682" y="596" as="targetPoint" />
          </mxGeometry>
        </mxCell>
        <mxCell id="HkL5jem2buBL4XpJYNCQ-24" value="" style="endArrow=none;html=1;rounded=0;startArrow=classic;startFill=1;endFill=0;" edge="1" parent="1">
          <mxGeometry width="50" height="50" relative="1" as="geometry">
            <mxPoint x="425" y="651" as="sourcePoint" />
            <mxPoint x="682" y="651" as="targetPoint" />
          </mxGeometry>
        </mxCell>
        <mxCell id="HkL5jem2buBL4XpJYNCQ-25" value="Provide recipe link" style="text;html=1;align=center;verticalAlign=middle;resizable=0;points=[];autosize=1;strokeColor=none;fillColor=none;" vertex="1" parent="1">
          <mxGeometry x="496.5" y="622" width="116" height="26" as="geometry" />
        </mxCell>
        <mxCell id="HkL5jem2buBL4XpJYNCQ-26" value="" style="endArrow=none;html=1;rounded=0;startArrow=classic;startFill=1;endFill=0;" edge="1" parent="1">
          <mxGeometry width="50" height="50" relative="1" as="geometry">
            <mxPoint x="167" y="722" as="sourcePoint" />
            <mxPoint x="424" y="722" as="targetPoint" />
          </mxGeometry>
        </mxCell>
        <mxCell id="HkL5jem2buBL4XpJYNCQ-27" value="Redirect to recipe web page" style="text;html=1;align=center;verticalAlign=middle;resizable=0;points=[];autosize=1;strokeColor=none;fillColor=none;" vertex="1" parent="1">
          <mxGeometry x="216" y="692" width="167" height="26" as="geometry" />
        </mxCell>
      </root>
    </mxGraphModel>
  </diagram>
</mxfile>
